<mxfile host="app.diagrams.net" modified="2023-11-14T13:55:43.751Z" agent="Mozilla/5.0 (Macintosh; Intel Mac OS X 10_15_7) AppleWebKit/537.36 (KHTML, like Gecko) Chrome/119.0.0.0 Safari/537.36" etag="yRQbFLtLx3DG5yG9P3UR" version="22.1.1" type="device">
  <diagram name="Page-1" id="T-uW2GDAXrPzi2V3QfyI">
    <mxGraphModel dx="1307" dy="865" grid="1" gridSize="10" guides="1" tooltips="1" connect="1" arrows="1" fold="1" page="1" pageScale="1" pageWidth="1169" pageHeight="827" math="0" shadow="0">
      <root>
        <mxCell id="0" />
        <mxCell id="1" parent="0" />
        <mxCell id="SFs9N2EElwwP3pAvT7Un-1" value="Person" style="rounded=0;whiteSpace=wrap;html=1;fillColor=#dae8fc;strokeColor=#6c8ebf;" vertex="1" parent="1">
          <mxGeometry x="350" y="100" width="120" height="60" as="geometry" />
        </mxCell>
        <mxCell id="SFs9N2EElwwP3pAvT7Un-2" value="User" style="rounded=0;whiteSpace=wrap;html=1;fillColor=#dae8fc;strokeColor=#6c8ebf;" vertex="1" parent="1">
          <mxGeometry x="660" y="250" width="120" height="60" as="geometry" />
        </mxCell>
        <mxCell id="SFs9N2EElwwP3pAvT7Un-6" value="DOB" style="rounded=0;whiteSpace=wrap;html=1;fillColor=#f8cecc;strokeColor=#b85450;" vertex="1" parent="1">
          <mxGeometry x="100" y="150" width="100" height="30" as="geometry" />
        </mxCell>
        <mxCell id="SFs9N2EElwwP3pAvT7Un-8" value="First Name" style="rounded=0;whiteSpace=wrap;html=1;fillColor=#f8cecc;strokeColor=#b85450;" vertex="1" parent="1">
          <mxGeometry x="100" y="30" width="100" height="30" as="geometry" />
        </mxCell>
        <mxCell id="SFs9N2EElwwP3pAvT7Un-9" value="Last Name" style="rounded=0;whiteSpace=wrap;html=1;fillColor=#f8cecc;strokeColor=#b85450;" vertex="1" parent="1">
          <mxGeometry x="60" y="90" width="100" height="30" as="geometry" />
        </mxCell>
        <mxCell id="SFs9N2EElwwP3pAvT7Un-10" value="Email" style="rounded=0;whiteSpace=wrap;html=1;fillColor=#f8cecc;strokeColor=#b85450;" vertex="1" parent="1">
          <mxGeometry x="160" y="210" width="100" height="30" as="geometry" />
        </mxCell>
        <mxCell id="SFs9N2EElwwP3pAvT7Un-11" value="Phone No" style="rounded=0;whiteSpace=wrap;html=1;fillColor=#f8cecc;strokeColor=#b85450;" vertex="1" parent="1">
          <mxGeometry x="210" y="265" width="100" height="30" as="geometry" />
        </mxCell>
        <mxCell id="SFs9N2EElwwP3pAvT7Un-12" value="" style="endArrow=classic;startArrow=classic;html=1;rounded=0;exitX=1;exitY=0.5;exitDx=0;exitDy=0;entryX=0;entryY=0;entryDx=0;entryDy=0;" edge="1" parent="1" source="SFs9N2EElwwP3pAvT7Un-8" target="SFs9N2EElwwP3pAvT7Un-1">
          <mxGeometry width="50" height="50" relative="1" as="geometry">
            <mxPoint x="560" y="450" as="sourcePoint" />
            <mxPoint x="610" y="400" as="targetPoint" />
          </mxGeometry>
        </mxCell>
        <mxCell id="SFs9N2EElwwP3pAvT7Un-13" value="" style="endArrow=classic;startArrow=classic;html=1;rounded=0;exitX=1;exitY=0.5;exitDx=0;exitDy=0;entryX=0;entryY=0.25;entryDx=0;entryDy=0;" edge="1" parent="1" source="SFs9N2EElwwP3pAvT7Un-9" target="SFs9N2EElwwP3pAvT7Un-1">
          <mxGeometry width="50" height="50" relative="1" as="geometry">
            <mxPoint x="310" y="225" as="sourcePoint" />
            <mxPoint x="460" y="260" as="targetPoint" />
          </mxGeometry>
        </mxCell>
        <mxCell id="SFs9N2EElwwP3pAvT7Un-14" value="" style="endArrow=classic;startArrow=classic;html=1;rounded=0;exitX=1;exitY=0.5;exitDx=0;exitDy=0;entryX=0;entryY=0.5;entryDx=0;entryDy=0;" edge="1" parent="1" source="SFs9N2EElwwP3pAvT7Un-6" target="SFs9N2EElwwP3pAvT7Un-1">
          <mxGeometry width="50" height="50" relative="1" as="geometry">
            <mxPoint x="320" y="235" as="sourcePoint" />
            <mxPoint x="470" y="270" as="targetPoint" />
          </mxGeometry>
        </mxCell>
        <mxCell id="SFs9N2EElwwP3pAvT7Un-15" value="" style="endArrow=classic;startArrow=classic;html=1;rounded=0;exitX=1;exitY=0.5;exitDx=0;exitDy=0;entryX=0;entryY=0.5;entryDx=0;entryDy=0;" edge="1" parent="1" source="SFs9N2EElwwP3pAvT7Un-10" target="SFs9N2EElwwP3pAvT7Un-1">
          <mxGeometry width="50" height="50" relative="1" as="geometry">
            <mxPoint x="330" y="245" as="sourcePoint" />
            <mxPoint x="480" y="280" as="targetPoint" />
          </mxGeometry>
        </mxCell>
        <mxCell id="SFs9N2EElwwP3pAvT7Un-16" value="" style="endArrow=classic;startArrow=classic;html=1;rounded=0;exitX=1;exitY=0.5;exitDx=0;exitDy=0;entryX=0;entryY=0.5;entryDx=0;entryDy=0;" edge="1" parent="1" source="SFs9N2EElwwP3pAvT7Un-11" target="SFs9N2EElwwP3pAvT7Un-1">
          <mxGeometry width="50" height="50" relative="1" as="geometry">
            <mxPoint x="340" y="255" as="sourcePoint" />
            <mxPoint x="490" y="290" as="targetPoint" />
          </mxGeometry>
        </mxCell>
        <mxCell id="SFs9N2EElwwP3pAvT7Un-17" value="UserName" style="rounded=0;whiteSpace=wrap;html=1;fillColor=#dae8fc;strokeColor=#6c8ebf;" vertex="1" parent="1">
          <mxGeometry x="760" y="100" width="120" height="30" as="geometry" />
        </mxCell>
        <mxCell id="SFs9N2EElwwP3pAvT7Un-18" value="Password" style="rounded=0;whiteSpace=wrap;html=1;fillColor=#f8cecc;strokeColor=#b85450;" vertex="1" parent="1">
          <mxGeometry x="840" y="165" width="120" height="30" as="geometry" />
        </mxCell>
        <mxCell id="SFs9N2EElwwP3pAvT7Un-19" value="" style="endArrow=classic;startArrow=classic;html=1;rounded=0;entryX=0.408;entryY=1.1;entryDx=0;entryDy=0;entryPerimeter=0;exitX=0.25;exitY=0;exitDx=0;exitDy=0;" edge="1" parent="1" source="SFs9N2EElwwP3pAvT7Un-2" target="SFs9N2EElwwP3pAvT7Un-17">
          <mxGeometry width="50" height="50" relative="1" as="geometry">
            <mxPoint x="700" y="460" as="sourcePoint" />
            <mxPoint x="750" y="410" as="targetPoint" />
          </mxGeometry>
        </mxCell>
        <mxCell id="SFs9N2EElwwP3pAvT7Un-37" value="1" style="edgeLabel;html=1;align=center;verticalAlign=middle;resizable=0;points=[];" vertex="1" connectable="0" parent="SFs9N2EElwwP3pAvT7Un-19">
          <mxGeometry x="0.8225" y="2" relative="1" as="geometry">
            <mxPoint y="1" as="offset" />
          </mxGeometry>
        </mxCell>
        <mxCell id="SFs9N2EElwwP3pAvT7Un-38" value="1" style="edgeLabel;html=1;align=center;verticalAlign=middle;resizable=0;points=[];" vertex="1" connectable="0" parent="SFs9N2EElwwP3pAvT7Un-19">
          <mxGeometry x="-0.8094" y="-2" relative="1" as="geometry">
            <mxPoint y="1" as="offset" />
          </mxGeometry>
        </mxCell>
        <mxCell id="SFs9N2EElwwP3pAvT7Un-20" value="1" style="endArrow=classic;startArrow=classic;html=1;rounded=0;exitX=0.25;exitY=0;exitDx=0;exitDy=0;" edge="1" parent="1" source="SFs9N2EElwwP3pAvT7Un-2" target="SFs9N2EElwwP3pAvT7Un-18">
          <mxGeometry x="0.8517" y="-2" width="50" height="50" relative="1" as="geometry">
            <mxPoint x="700" y="260" as="sourcePoint" />
            <mxPoint x="669" y="143" as="targetPoint" />
            <mxPoint y="-1" as="offset" />
          </mxGeometry>
        </mxCell>
        <mxCell id="SFs9N2EElwwP3pAvT7Un-23" value="Housing Posts" style="rounded=0;whiteSpace=wrap;html=1;fillColor=#f8cecc;strokeColor=#b85450;" vertex="1" parent="1">
          <mxGeometry x="680" y="490" width="120" height="60" as="geometry" />
        </mxCell>
        <mxCell id="SFs9N2EElwwP3pAvT7Un-27" value="1" style="endArrow=open;html=1;endSize=12;startArrow=diamondThin;startSize=14;startFill=0;edgeStyle=orthogonalEdgeStyle;align=left;verticalAlign=bottom;rounded=0;exitX=1;exitY=0.5;exitDx=0;exitDy=0;entryX=0.085;entryY=-0.048;entryDx=0;entryDy=0;entryPerimeter=0;" edge="1" parent="1" source="SFs9N2EElwwP3pAvT7Un-1" target="SFs9N2EElwwP3pAvT7Un-2">
          <mxGeometry x="-1" y="3" relative="1" as="geometry">
            <mxPoint x="650" y="440" as="sourcePoint" />
            <mxPoint x="660" y="280" as="targetPoint" />
          </mxGeometry>
        </mxCell>
        <mxCell id="SFs9N2EElwwP3pAvT7Un-28" value="1" style="edgeLabel;html=1;align=center;verticalAlign=middle;resizable=0;points=[];" vertex="1" connectable="0" parent="SFs9N2EElwwP3pAvT7Un-27">
          <mxGeometry x="0.6655" y="-1" relative="1" as="geometry">
            <mxPoint y="-11" as="offset" />
          </mxGeometry>
        </mxCell>
        <mxCell id="SFs9N2EElwwP3pAvT7Un-29" value="1" style="endArrow=open;html=1;endSize=12;startArrow=diamondThin;startSize=14;startFill=0;edgeStyle=orthogonalEdgeStyle;align=left;verticalAlign=bottom;rounded=0;exitX=0.463;exitY=1.02;exitDx=0;exitDy=0;exitPerimeter=0;entryX=0.826;entryY=-0.015;entryDx=0;entryDy=0;entryPerimeter=0;" edge="1" parent="1" source="SFs9N2EElwwP3pAvT7Un-2" target="SFs9N2EElwwP3pAvT7Un-23">
          <mxGeometry x="-0.9265" y="4" relative="1" as="geometry">
            <mxPoint x="540" y="380" as="sourcePoint" />
            <mxPoint x="700" y="380" as="targetPoint" />
            <Array as="points">
              <mxPoint x="716" y="340" />
              <mxPoint x="780" y="340" />
              <mxPoint x="780" y="489" />
            </Array>
            <mxPoint as="offset" />
          </mxGeometry>
        </mxCell>
        <mxCell id="SFs9N2EElwwP3pAvT7Un-30" value="0..." style="edgeLabel;html=1;align=center;verticalAlign=middle;resizable=0;points=[];" vertex="1" connectable="0" parent="SFs9N2EElwwP3pAvT7Un-29">
          <mxGeometry x="0.8207" y="-3" relative="1" as="geometry">
            <mxPoint as="offset" />
          </mxGeometry>
        </mxCell>
        <mxCell id="SFs9N2EElwwP3pAvT7Un-31" value="Activity Posts" style="rounded=0;whiteSpace=wrap;html=1;fillColor=#f8cecc;strokeColor=#b85450;" vertex="1" parent="1">
          <mxGeometry x="850" y="510" width="120" height="60" as="geometry" />
        </mxCell>
        <mxCell id="SFs9N2EElwwP3pAvT7Un-33" value="1" style="endArrow=open;html=1;endSize=12;startArrow=diamondThin;startSize=14;startFill=0;edgeStyle=orthogonalEdgeStyle;align=left;verticalAlign=bottom;rounded=0;exitX=0.683;exitY=1.03;exitDx=0;exitDy=0;exitPerimeter=0;entryX=0.5;entryY=0;entryDx=0;entryDy=0;" edge="1" parent="1" source="SFs9N2EElwwP3pAvT7Un-2" target="SFs9N2EElwwP3pAvT7Un-31">
          <mxGeometry x="-0.9265" y="4" relative="1" as="geometry">
            <mxPoint x="726" y="321" as="sourcePoint" />
            <mxPoint x="910" y="450" as="targetPoint" />
            <Array as="points">
              <mxPoint x="742" y="330" />
              <mxPoint x="910" y="330" />
            </Array>
            <mxPoint as="offset" />
          </mxGeometry>
        </mxCell>
        <mxCell id="SFs9N2EElwwP3pAvT7Un-34" value="0..." style="edgeLabel;html=1;align=center;verticalAlign=middle;resizable=0;points=[];" vertex="1" connectable="0" parent="SFs9N2EElwwP3pAvT7Un-33">
          <mxGeometry x="0.8207" y="-3" relative="1" as="geometry">
            <mxPoint as="offset" />
          </mxGeometry>
        </mxCell>
        <mxCell id="SFs9N2EElwwP3pAvT7Un-39" value="Created Housing&lt;br&gt;Posts" style="html=1;whiteSpace=wrap;fillColor=#f8cecc;strokeColor=#b85450;" vertex="1" parent="1">
          <mxGeometry x="410" y="440.00000000000006" width="110" height="50" as="geometry" />
        </mxCell>
        <mxCell id="SFs9N2EElwwP3pAvT7Un-40" value="0..." style="endArrow=open;html=1;endSize=12;startArrow=diamondThin;startSize=14;startFill=0;edgeStyle=orthogonalEdgeStyle;align=left;verticalAlign=bottom;rounded=0;entryX=0.5;entryY=0;entryDx=0;entryDy=0;exitX=0;exitY=1;exitDx=0;exitDy=0;" edge="1" parent="1" source="SFs9N2EElwwP3pAvT7Un-2" target="SFs9N2EElwwP3pAvT7Un-39">
          <mxGeometry x="-1" y="3" relative="1" as="geometry">
            <mxPoint x="610" y="350" as="sourcePoint" />
            <mxPoint x="770" y="350" as="targetPoint" />
          </mxGeometry>
        </mxCell>
        <mxCell id="SFs9N2EElwwP3pAvT7Un-41" value="0..." style="edgeLabel;html=1;align=center;verticalAlign=middle;resizable=0;points=[];" vertex="1" connectable="0" parent="SFs9N2EElwwP3pAvT7Un-40">
          <mxGeometry x="0.8808" y="5" relative="1" as="geometry">
            <mxPoint x="-10" as="offset" />
          </mxGeometry>
        </mxCell>
        <mxCell id="SFs9N2EElwwP3pAvT7Un-42" value="User can create N Posts&amp;nbsp;&lt;br&gt;or doesn&#39;t post any" style="edgeLabel;html=1;align=center;verticalAlign=middle;resizable=0;points=[];" vertex="1" connectable="0" parent="SFs9N2EElwwP3pAvT7Un-40">
          <mxGeometry x="0.2093" y="-3" relative="1" as="geometry">
            <mxPoint x="4" y="-12" as="offset" />
          </mxGeometry>
        </mxCell>
        <mxCell id="SFs9N2EElwwP3pAvT7Un-43" value="Housing" style="html=1;whiteSpace=wrap;fillColor=#dae8fc;strokeColor=#6c8ebf;" vertex="1" parent="1">
          <mxGeometry x="540" y="660" width="110" height="50" as="geometry" />
        </mxCell>
        <mxCell id="SFs9N2EElwwP3pAvT7Un-44" value="1" style="endArrow=open;html=1;endSize=12;startArrow=diamondThin;startSize=14;startFill=0;edgeStyle=orthogonalEdgeStyle;align=left;verticalAlign=bottom;rounded=0;entryX=0.25;entryY=0;entryDx=0;entryDy=0;exitX=0.5;exitY=1;exitDx=0;exitDy=0;" edge="1" parent="1" source="SFs9N2EElwwP3pAvT7Un-39" target="SFs9N2EElwwP3pAvT7Un-43">
          <mxGeometry x="-0.8596" y="15" relative="1" as="geometry">
            <mxPoint x="610" y="350" as="sourcePoint" />
            <mxPoint x="770" y="350" as="targetPoint" />
            <mxPoint y="-1" as="offset" />
          </mxGeometry>
        </mxCell>
        <mxCell id="SFs9N2EElwwP3pAvT7Un-45" value="0..." style="text;html=1;align=center;verticalAlign=middle;resizable=0;points=[];autosize=1;strokeColor=none;fillColor=none;" vertex="1" parent="1">
          <mxGeometry x="530" y="620" width="40" height="30" as="geometry" />
        </mxCell>
        <mxCell id="SFs9N2EElwwP3pAvT7Un-46" value="1" style="endArrow=open;html=1;endSize=12;startArrow=diamondThin;startSize=14;startFill=0;edgeStyle=orthogonalEdgeStyle;align=left;verticalAlign=bottom;rounded=0;entryX=0.75;entryY=0;entryDx=0;entryDy=0;exitX=0;exitY=0.5;exitDx=0;exitDy=0;" edge="1" parent="1" source="SFs9N2EElwwP3pAvT7Un-23" target="SFs9N2EElwwP3pAvT7Un-43">
          <mxGeometry x="-1" y="3" relative="1" as="geometry">
            <mxPoint x="610" y="350" as="sourcePoint" />
            <mxPoint x="770" y="350" as="targetPoint" />
          </mxGeometry>
        </mxCell>
        <mxCell id="SFs9N2EElwwP3pAvT7Un-47" value="0..." style="edgeLabel;html=1;align=center;verticalAlign=middle;resizable=0;points=[];" vertex="1" connectable="0" parent="SFs9N2EElwwP3pAvT7Un-46">
          <mxGeometry x="0.8337" y="-2" relative="1" as="geometry">
            <mxPoint y="-4" as="offset" />
          </mxGeometry>
        </mxCell>
        <mxCell id="SFs9N2EElwwP3pAvT7Un-49" value="Created Activities Posts" style="html=1;whiteSpace=wrap;fillColor=#f8cecc;strokeColor=#b85450;" vertex="1" parent="1">
          <mxGeometry x="1040" y="384" width="110" height="50" as="geometry" />
        </mxCell>
        <mxCell id="SFs9N2EElwwP3pAvT7Un-50" value="" style="endArrow=open;html=1;endSize=12;startArrow=diamondThin;startSize=14;startFill=0;edgeStyle=orthogonalEdgeStyle;align=left;verticalAlign=bottom;rounded=0;exitX=1;exitY=0.5;exitDx=0;exitDy=0;entryX=0.5;entryY=0;entryDx=0;entryDy=0;" edge="1" parent="1" source="SFs9N2EElwwP3pAvT7Un-2" target="SFs9N2EElwwP3pAvT7Un-49">
          <mxGeometry x="-0.908" y="10" relative="1" as="geometry">
            <mxPoint x="740" y="350" as="sourcePoint" />
            <mxPoint x="900" y="350" as="targetPoint" />
            <mxPoint as="offset" />
          </mxGeometry>
        </mxCell>
        <mxCell id="SFs9N2EElwwP3pAvT7Un-167" value="0...." style="edgeLabel;html=1;align=center;verticalAlign=middle;resizable=0;points=[];" vertex="1" connectable="0" parent="SFs9N2EElwwP3pAvT7Un-50">
          <mxGeometry x="0.9" y="-3" relative="1" as="geometry">
            <mxPoint y="-1" as="offset" />
          </mxGeometry>
        </mxCell>
        <mxCell id="SFs9N2EElwwP3pAvT7Un-171" value="0..." style="edgeLabel;html=1;align=center;verticalAlign=middle;resizable=0;points=[];" vertex="1" connectable="0" parent="SFs9N2EElwwP3pAvT7Un-50">
          <mxGeometry x="-0.8989" y="2" relative="1" as="geometry">
            <mxPoint x="-1" as="offset" />
          </mxGeometry>
        </mxCell>
        <mxCell id="SFs9N2EElwwP3pAvT7Un-51" value="Activity" style="html=1;whiteSpace=wrap;fillColor=#dae8fc;strokeColor=#6c8ebf;" vertex="1" parent="1">
          <mxGeometry x="960" y="660" width="110" height="50" as="geometry" />
        </mxCell>
        <mxCell id="SFs9N2EElwwP3pAvT7Un-52" value="1" style="endArrow=open;html=1;endSize=12;startArrow=diamondThin;startSize=14;startFill=0;edgeStyle=orthogonalEdgeStyle;align=left;verticalAlign=bottom;rounded=0;exitX=0.5;exitY=1;exitDx=0;exitDy=0;" edge="1" parent="1" source="SFs9N2EElwwP3pAvT7Un-31" target="SFs9N2EElwwP3pAvT7Un-51">
          <mxGeometry x="-1" y="3" relative="1" as="geometry">
            <mxPoint x="740" y="350" as="sourcePoint" />
            <mxPoint x="900" y="350" as="targetPoint" />
            <Array as="points">
              <mxPoint x="910" y="605" />
              <mxPoint x="980" y="605" />
            </Array>
          </mxGeometry>
        </mxCell>
        <mxCell id="SFs9N2EElwwP3pAvT7Un-153" value="0..." style="edgeLabel;html=1;align=center;verticalAlign=middle;resizable=0;points=[];" vertex="1" connectable="0" parent="SFs9N2EElwwP3pAvT7Un-52">
          <mxGeometry x="0.7523" y="-3" relative="1" as="geometry">
            <mxPoint as="offset" />
          </mxGeometry>
        </mxCell>
        <mxCell id="SFs9N2EElwwP3pAvT7Un-53" value="1" style="endArrow=open;html=1;endSize=12;startArrow=diamondThin;startSize=14;startFill=0;edgeStyle=orthogonalEdgeStyle;align=left;verticalAlign=bottom;rounded=0;exitX=0.5;exitY=1;exitDx=0;exitDy=0;entryX=1;entryY=0.5;entryDx=0;entryDy=0;" edge="1" parent="1" source="SFs9N2EElwwP3pAvT7Un-49" target="SFs9N2EElwwP3pAvT7Un-51">
          <mxGeometry x="-1" y="3" relative="1" as="geometry">
            <mxPoint x="1020" y="530" as="sourcePoint" />
            <mxPoint x="1090" y="640" as="targetPoint" />
            <Array as="points">
              <mxPoint x="1095" y="450" />
              <mxPoint x="1090" y="450" />
              <mxPoint x="1090" y="685" />
            </Array>
          </mxGeometry>
        </mxCell>
        <mxCell id="SFs9N2EElwwP3pAvT7Un-54" value="0..." style="edgeLabel;html=1;align=center;verticalAlign=middle;resizable=0;points=[];" vertex="1" connectable="0" parent="SFs9N2EElwwP3pAvT7Un-53">
          <mxGeometry x="0.7248" y="-2" relative="1" as="geometry">
            <mxPoint as="offset" />
          </mxGeometry>
        </mxCell>
        <mxCell id="SFs9N2EElwwP3pAvT7Un-55" value="Title" style="html=1;whiteSpace=wrap;fillColor=#f8cecc;strokeColor=#b85450;" vertex="1" parent="1">
          <mxGeometry x="340" y="700" width="110" height="20" as="geometry" />
        </mxCell>
        <mxCell id="SFs9N2EElwwP3pAvT7Un-56" value="Author" style="html=1;whiteSpace=wrap;fillColor=#f8cecc;strokeColor=#b85450;" vertex="1" parent="1">
          <mxGeometry x="390" y="740" width="110" height="20" as="geometry" />
        </mxCell>
        <mxCell id="SFs9N2EElwwP3pAvT7Un-57" value="Benefits" style="html=1;whiteSpace=wrap;fillColor=#f8cecc;strokeColor=#b85450;" vertex="1" parent="1">
          <mxGeometry x="475" y="780" width="110" height="20" as="geometry" />
        </mxCell>
        <mxCell id="SFs9N2EElwwP3pAvT7Un-59" value="Images" style="html=1;whiteSpace=wrap;fillColor=#f8cecc;strokeColor=#b85450;" vertex="1" parent="1">
          <mxGeometry x="625" y="780" width="110" height="20" as="geometry" />
        </mxCell>
        <mxCell id="SFs9N2EElwwP3pAvT7Un-60" value="Preferences" style="html=1;whiteSpace=wrap;fillColor=#f8cecc;strokeColor=#b85450;" vertex="1" parent="1">
          <mxGeometry x="685" y="728" width="110" height="20" as="geometry" />
        </mxCell>
        <mxCell id="SFs9N2EElwwP3pAvT7Un-62" value="" style="endArrow=block;startArrow=block;endFill=1;startFill=1;html=1;rounded=0;exitX=1;exitY=0.25;exitDx=0;exitDy=0;entryX=0;entryY=0.5;entryDx=0;entryDy=0;" edge="1" parent="1" source="SFs9N2EElwwP3pAvT7Un-55" target="SFs9N2EElwwP3pAvT7Un-43">
          <mxGeometry width="160" relative="1" as="geometry">
            <mxPoint x="740" y="410" as="sourcePoint" />
            <mxPoint x="900" y="410" as="targetPoint" />
          </mxGeometry>
        </mxCell>
        <mxCell id="SFs9N2EElwwP3pAvT7Un-63" value="1" style="text;html=1;align=center;verticalAlign=middle;resizable=0;points=[];autosize=1;strokeColor=none;fillColor=none;" vertex="1" parent="1">
          <mxGeometry x="445" y="678" width="30" height="30" as="geometry" />
        </mxCell>
        <mxCell id="SFs9N2EElwwP3pAvT7Un-64" value="1" style="text;html=1;align=center;verticalAlign=middle;resizable=0;points=[];autosize=1;strokeColor=none;fillColor=none;" vertex="1" parent="1">
          <mxGeometry x="505" y="658" width="30" height="30" as="geometry" />
        </mxCell>
        <mxCell id="SFs9N2EElwwP3pAvT7Un-65" value="" style="endArrow=block;startArrow=block;endFill=1;startFill=1;html=1;rounded=0;exitX=1;exitY=0;exitDx=0;exitDy=0;entryX=0.114;entryY=1.036;entryDx=0;entryDy=0;entryPerimeter=0;" edge="1" parent="1" target="SFs9N2EElwwP3pAvT7Un-43">
          <mxGeometry width="160" relative="1" as="geometry">
            <mxPoint x="500" y="750" as="sourcePoint" />
            <mxPoint x="540" y="720" as="targetPoint" />
          </mxGeometry>
        </mxCell>
        <mxCell id="SFs9N2EElwwP3pAvT7Un-66" value="1" style="text;html=1;align=center;verticalAlign=middle;resizable=0;points=[];autosize=1;strokeColor=none;fillColor=none;" vertex="1" parent="1">
          <mxGeometry x="480" y="710" width="30" height="30" as="geometry" />
        </mxCell>
        <mxCell id="SFs9N2EElwwP3pAvT7Un-67" value="1" style="text;html=1;align=center;verticalAlign=middle;resizable=0;points=[];autosize=1;strokeColor=none;fillColor=none;" vertex="1" parent="1">
          <mxGeometry x="530" y="710" width="30" height="30" as="geometry" />
        </mxCell>
        <mxCell id="SFs9N2EElwwP3pAvT7Un-70" value="" style="endArrow=block;startArrow=block;endFill=1;startFill=1;html=1;rounded=0;exitX=0.75;exitY=0;exitDx=0;exitDy=0;entryX=0.5;entryY=1;entryDx=0;entryDy=0;" edge="1" parent="1" source="SFs9N2EElwwP3pAvT7Un-57" target="SFs9N2EElwwP3pAvT7Un-43">
          <mxGeometry width="160" relative="1" as="geometry">
            <mxPoint x="510" y="760" as="sourcePoint" />
            <mxPoint x="563" y="722" as="targetPoint" />
          </mxGeometry>
        </mxCell>
        <mxCell id="SFs9N2EElwwP3pAvT7Un-74" value="1" style="edgeLabel;html=1;align=center;verticalAlign=middle;resizable=0;points=[];" vertex="1" connectable="0" parent="SFs9N2EElwwP3pAvT7Un-70">
          <mxGeometry x="0.6026" y="4" relative="1" as="geometry">
            <mxPoint as="offset" />
          </mxGeometry>
        </mxCell>
        <mxCell id="SFs9N2EElwwP3pAvT7Un-71" value="" style="endArrow=block;startArrow=block;endFill=1;startFill=1;html=1;rounded=0;entryX=0.5;entryY=1;entryDx=0;entryDy=0;" edge="1" parent="1" source="SFs9N2EElwwP3pAvT7Un-59" target="SFs9N2EElwwP3pAvT7Un-43">
          <mxGeometry width="160" relative="1" as="geometry">
            <mxPoint x="543" y="790" as="sourcePoint" />
            <mxPoint x="605" y="720" as="targetPoint" />
          </mxGeometry>
        </mxCell>
        <mxCell id="SFs9N2EElwwP3pAvT7Un-75" value="N" style="edgeLabel;html=1;align=center;verticalAlign=middle;resizable=0;points=[];" vertex="1" connectable="0" parent="SFs9N2EElwwP3pAvT7Un-71">
          <mxGeometry x="-0.5597" y="-5" relative="1" as="geometry">
            <mxPoint as="offset" />
          </mxGeometry>
        </mxCell>
        <mxCell id="SFs9N2EElwwP3pAvT7Un-72" value="" style="endArrow=block;startArrow=block;endFill=1;startFill=1;html=1;rounded=0;entryX=1;entryY=0.75;entryDx=0;entryDy=0;exitX=0.25;exitY=0;exitDx=0;exitDy=0;" edge="1" parent="1" source="SFs9N2EElwwP3pAvT7Un-60" target="SFs9N2EElwwP3pAvT7Un-43">
          <mxGeometry width="160" relative="1" as="geometry">
            <mxPoint x="640" y="790" as="sourcePoint" />
            <mxPoint x="605" y="720" as="targetPoint" />
          </mxGeometry>
        </mxCell>
        <mxCell id="SFs9N2EElwwP3pAvT7Un-73" value="N" style="text;html=1;align=center;verticalAlign=middle;resizable=0;points=[];autosize=1;strokeColor=none;fillColor=none;" vertex="1" parent="1">
          <mxGeometry x="535" y="748" width="30" height="30" as="geometry" />
        </mxCell>
        <mxCell id="SFs9N2EElwwP3pAvT7Un-76" value="1" style="text;html=1;align=center;verticalAlign=middle;resizable=0;points=[];autosize=1;strokeColor=none;fillColor=none;" vertex="1" parent="1">
          <mxGeometry x="595" y="708" width="30" height="30" as="geometry" />
        </mxCell>
        <mxCell id="SFs9N2EElwwP3pAvT7Un-77" value="N" style="text;html=1;align=center;verticalAlign=middle;resizable=0;points=[];autosize=1;strokeColor=none;fillColor=none;" vertex="1" parent="1">
          <mxGeometry x="680" y="708" width="30" height="30" as="geometry" />
        </mxCell>
        <mxCell id="SFs9N2EElwwP3pAvT7Un-78" value="1" style="text;html=1;align=center;verticalAlign=middle;resizable=0;points=[];autosize=1;strokeColor=none;fillColor=none;" vertex="1" parent="1">
          <mxGeometry x="645" y="678" width="30" height="30" as="geometry" />
        </mxCell>
        <mxCell id="SFs9N2EElwwP3pAvT7Un-133" value="Title" style="html=1;whiteSpace=wrap;fillColor=#f8cecc;strokeColor=#b85450;" vertex="1" parent="1">
          <mxGeometry x="840" y="748" width="110" height="20" as="geometry" />
        </mxCell>
        <mxCell id="SFs9N2EElwwP3pAvT7Un-134" value="Author" style="html=1;whiteSpace=wrap;fillColor=#f8cecc;strokeColor=#b85450;" vertex="1" parent="1">
          <mxGeometry x="880" y="790" width="110" height="20" as="geometry" />
        </mxCell>
        <mxCell id="SFs9N2EElwwP3pAvT7Un-136" value="Images" style="html=1;whiteSpace=wrap;fillColor=#f8cecc;strokeColor=#b85450;" vertex="1" parent="1">
          <mxGeometry x="1020" y="790" width="110" height="20" as="geometry" />
        </mxCell>
        <mxCell id="SFs9N2EElwwP3pAvT7Un-137" value="Preferences" style="html=1;whiteSpace=wrap;fillColor=#f8cecc;strokeColor=#b85450;" vertex="1" parent="1">
          <mxGeometry x="1050" y="748" width="110" height="20" as="geometry" />
        </mxCell>
        <mxCell id="SFs9N2EElwwP3pAvT7Un-138" value="" style="endArrow=block;startArrow=block;endFill=1;startFill=1;html=1;rounded=0;exitX=0.381;exitY=-0.221;exitDx=0;exitDy=0;exitPerimeter=0;entryX=0;entryY=0.5;entryDx=0;entryDy=0;" edge="1" parent="1" source="SFs9N2EElwwP3pAvT7Un-133" target="SFs9N2EElwwP3pAvT7Un-51">
          <mxGeometry width="160" relative="1" as="geometry">
            <mxPoint x="620" y="410" as="sourcePoint" />
            <mxPoint x="780" y="410" as="targetPoint" />
          </mxGeometry>
        </mxCell>
        <mxCell id="SFs9N2EElwwP3pAvT7Un-139" value="" style="endArrow=block;startArrow=block;endFill=1;startFill=1;html=1;rounded=0;exitX=0.75;exitY=0;exitDx=0;exitDy=0;entryX=0.25;entryY=1;entryDx=0;entryDy=0;" edge="1" parent="1" source="SFs9N2EElwwP3pAvT7Un-134" target="SFs9N2EElwwP3pAvT7Un-51">
          <mxGeometry width="160" relative="1" as="geometry">
            <mxPoint x="892" y="754" as="sourcePoint" />
            <mxPoint x="970" y="695" as="targetPoint" />
          </mxGeometry>
        </mxCell>
        <mxCell id="SFs9N2EElwwP3pAvT7Un-140" value="" style="endArrow=block;startArrow=block;endFill=1;startFill=1;html=1;rounded=0;exitX=0.25;exitY=0;exitDx=0;exitDy=0;entryX=0.5;entryY=1;entryDx=0;entryDy=0;" edge="1" parent="1" source="SFs9N2EElwwP3pAvT7Un-136" target="SFs9N2EElwwP3pAvT7Un-51">
          <mxGeometry width="160" relative="1" as="geometry">
            <mxPoint x="973" y="800" as="sourcePoint" />
            <mxPoint x="998" y="720" as="targetPoint" />
          </mxGeometry>
        </mxCell>
        <mxCell id="SFs9N2EElwwP3pAvT7Un-149" value="1" style="edgeLabel;html=1;align=center;verticalAlign=middle;resizable=0;points=[];" vertex="1" connectable="0" parent="SFs9N2EElwwP3pAvT7Un-140">
          <mxGeometry x="0.6077" y="1" relative="1" as="geometry">
            <mxPoint as="offset" />
          </mxGeometry>
        </mxCell>
        <mxCell id="SFs9N2EElwwP3pAvT7Un-141" value="" style="endArrow=block;startArrow=block;endFill=1;startFill=1;html=1;rounded=0;entryX=0.75;entryY=1;entryDx=0;entryDy=0;" edge="1" parent="1" source="SFs9N2EElwwP3pAvT7Un-137" target="SFs9N2EElwwP3pAvT7Un-51">
          <mxGeometry width="160" relative="1" as="geometry">
            <mxPoint x="983" y="810" as="sourcePoint" />
            <mxPoint x="1008" y="730" as="targetPoint" />
          </mxGeometry>
        </mxCell>
        <mxCell id="SFs9N2EElwwP3pAvT7Un-150" value="1" style="edgeLabel;html=1;align=center;verticalAlign=middle;resizable=0;points=[];" vertex="1" connectable="0" parent="SFs9N2EElwwP3pAvT7Un-141">
          <mxGeometry x="0.5117" relative="1" as="geometry">
            <mxPoint as="offset" />
          </mxGeometry>
        </mxCell>
        <mxCell id="SFs9N2EElwwP3pAvT7Un-144" value="1" style="text;html=1;align=center;verticalAlign=middle;resizable=0;points=[];autosize=1;strokeColor=none;fillColor=none;" vertex="1" parent="1">
          <mxGeometry x="875" y="708" width="30" height="30" as="geometry" />
        </mxCell>
        <mxCell id="SFs9N2EElwwP3pAvT7Un-145" value="1" style="text;html=1;align=center;verticalAlign=middle;resizable=0;points=[];autosize=1;strokeColor=none;fillColor=none;" vertex="1" parent="1">
          <mxGeometry x="930" y="670" width="30" height="30" as="geometry" />
        </mxCell>
        <mxCell id="SFs9N2EElwwP3pAvT7Un-146" value="1" style="text;html=1;align=center;verticalAlign=middle;resizable=0;points=[];autosize=1;strokeColor=none;fillColor=none;" vertex="1" parent="1">
          <mxGeometry x="960" y="760" width="30" height="30" as="geometry" />
        </mxCell>
        <mxCell id="SFs9N2EElwwP3pAvT7Un-147" value="1" style="text;html=1;align=center;verticalAlign=middle;resizable=0;points=[];autosize=1;strokeColor=none;fillColor=none;" vertex="1" parent="1">
          <mxGeometry x="975" y="708" width="30" height="30" as="geometry" />
        </mxCell>
        <mxCell id="SFs9N2EElwwP3pAvT7Un-148" value="N" style="text;html=1;align=center;verticalAlign=middle;resizable=0;points=[];autosize=1;strokeColor=none;fillColor=none;" vertex="1" parent="1">
          <mxGeometry x="1020" y="760" width="30" height="30" as="geometry" />
        </mxCell>
        <mxCell id="SFs9N2EElwwP3pAvT7Un-151" value="N" style="text;html=1;align=center;verticalAlign=middle;resizable=0;points=[];autosize=1;strokeColor=none;fillColor=none;" vertex="1" parent="1">
          <mxGeometry x="1070" y="720" width="30" height="30" as="geometry" />
        </mxCell>
        <mxCell id="SFs9N2EElwwP3pAvT7Un-154" value="Admin" style="html=1;whiteSpace=wrap;strokeColor=#d6b656;fillColor=#fff2cc;" vertex="1" parent="1">
          <mxGeometry x="110" y="460" width="110" height="50" as="geometry" />
        </mxCell>
        <mxCell id="SFs9N2EElwwP3pAvT7Un-155" value="Analytics" style="html=1;whiteSpace=wrap;fillColor=#fff2cc;strokeColor=#d6b656;" vertex="1" parent="1">
          <mxGeometry x="20" y="580" width="110" height="30" as="geometry" />
        </mxCell>
        <mxCell id="SFs9N2EElwwP3pAvT7Un-156" value="User Management" style="html=1;whiteSpace=wrap;fillColor=#fff2cc;strokeColor=#d6b656;" vertex="1" parent="1">
          <mxGeometry x="190" y="580" width="110" height="30" as="geometry" />
        </mxCell>
        <mxCell id="SFs9N2EElwwP3pAvT7Un-158" value="" style="endArrow=block;startArrow=block;endFill=1;startFill=1;html=1;rounded=0;exitX=0.586;exitY=-0.1;exitDx=0;exitDy=0;exitPerimeter=0;entryX=0.5;entryY=1;entryDx=0;entryDy=0;" edge="1" parent="1" source="SFs9N2EElwwP3pAvT7Un-155" target="SFs9N2EElwwP3pAvT7Un-154">
          <mxGeometry width="160" relative="1" as="geometry">
            <mxPoint x="570" y="390" as="sourcePoint" />
            <mxPoint x="730" y="390" as="targetPoint" />
          </mxGeometry>
        </mxCell>
        <mxCell id="SFs9N2EElwwP3pAvT7Un-159" value="" style="endArrow=block;startArrow=block;endFill=1;startFill=1;html=1;rounded=0;exitX=0.5;exitY=0;exitDx=0;exitDy=0;entryX=0.5;entryY=1;entryDx=0;entryDy=0;" edge="1" parent="1" source="SFs9N2EElwwP3pAvT7Un-156" target="SFs9N2EElwwP3pAvT7Un-154">
          <mxGeometry width="160" relative="1" as="geometry">
            <mxPoint x="114" y="537" as="sourcePoint" />
            <mxPoint x="175" y="510" as="targetPoint" />
          </mxGeometry>
        </mxCell>
        <mxCell id="SFs9N2EElwwP3pAvT7Un-189" value="N" style="edgeLabel;html=1;align=center;verticalAlign=middle;resizable=0;points=[];" vertex="1" connectable="0" parent="SFs9N2EElwwP3pAvT7Un-159">
          <mxGeometry x="-0.7355" relative="1" as="geometry">
            <mxPoint as="offset" />
          </mxGeometry>
        </mxCell>
        <mxCell id="SFs9N2EElwwP3pAvT7Un-160" value="" style="endArrow=block;startArrow=block;endFill=1;startFill=1;html=1;rounded=0;exitX=1;exitY=0.25;exitDx=0;exitDy=0;" edge="1" parent="1" source="SFs9N2EElwwP3pAvT7Un-154">
          <mxGeometry width="160" relative="1" as="geometry">
            <mxPoint x="570" y="390" as="sourcePoint" />
            <mxPoint x="660" y="265" as="targetPoint" />
            <Array as="points">
              <mxPoint x="260" y="360" />
            </Array>
          </mxGeometry>
        </mxCell>
        <mxCell id="SFs9N2EElwwP3pAvT7Un-162" value="1" style="edgeLabel;html=1;align=center;verticalAlign=middle;resizable=0;points=[];" vertex="1" connectable="0" parent="SFs9N2EElwwP3pAvT7Un-160">
          <mxGeometry x="-0.9395" y="3" relative="1" as="geometry">
            <mxPoint as="offset" />
          </mxGeometry>
        </mxCell>
        <mxCell id="SFs9N2EElwwP3pAvT7Un-163" value="0..." style="edgeLabel;html=1;align=center;verticalAlign=middle;resizable=0;points=[];" vertex="1" connectable="0" parent="SFs9N2EElwwP3pAvT7Un-160">
          <mxGeometry x="0.9382" y="4" relative="1" as="geometry">
            <mxPoint as="offset" />
          </mxGeometry>
        </mxCell>
        <mxCell id="SFs9N2EElwwP3pAvT7Un-164" value="One Admin can&amp;nbsp;&lt;br&gt;Manage N users" style="text;html=1;align=center;verticalAlign=middle;resizable=0;points=[];autosize=1;strokeColor=none;fillColor=none;" vertex="1" parent="1">
          <mxGeometry x="260" y="374" width="110" height="40" as="geometry" />
        </mxCell>
        <mxCell id="SFs9N2EElwwP3pAvT7Un-165" value="User can View&lt;br&gt;0 to N posts &lt;br&gt;related to hosuing" style="text;html=1;align=center;verticalAlign=middle;resizable=0;points=[];autosize=1;strokeColor=none;fillColor=none;" vertex="1" parent="1">
          <mxGeometry x="675" y="390" width="120" height="60" as="geometry" />
        </mxCell>
        <mxCell id="SFs9N2EElwwP3pAvT7Un-166" value="User can view&amp;nbsp;&lt;br&gt;0 to N posts related&amp;nbsp;&lt;br&gt;to activities" style="text;html=1;align=center;verticalAlign=middle;resizable=0;points=[];autosize=1;strokeColor=none;fillColor=none;" vertex="1" parent="1">
          <mxGeometry x="790" y="384" width="130" height="60" as="geometry" />
        </mxCell>
        <mxCell id="SFs9N2EElwwP3pAvT7Un-172" value="User can create&amp;nbsp; N Posts&amp;nbsp;&lt;br&gt;or doesn&#39;t post any" style="edgeLabel;html=1;align=center;verticalAlign=middle;resizable=0;points=[];" vertex="1" connectable="0" parent="1">
          <mxGeometry x="960" y="265" as="geometry" />
        </mxCell>
        <mxCell id="SFs9N2EElwwP3pAvT7Un-175" value="1" style="text;html=1;align=center;verticalAlign=middle;resizable=0;points=[];autosize=1;strokeColor=none;fillColor=none;" vertex="1" parent="1">
          <mxGeometry x="195" y="28" width="30" height="30" as="geometry" />
        </mxCell>
        <mxCell id="SFs9N2EElwwP3pAvT7Un-176" value="1" style="text;html=1;align=center;verticalAlign=middle;resizable=0;points=[];autosize=1;strokeColor=none;fillColor=none;" vertex="1" parent="1">
          <mxGeometry x="325" y="78" width="30" height="30" as="geometry" />
        </mxCell>
        <mxCell id="SFs9N2EElwwP3pAvT7Un-177" value="1" style="text;html=1;align=center;verticalAlign=middle;resizable=0;points=[];autosize=1;strokeColor=none;fillColor=none;" vertex="1" parent="1">
          <mxGeometry x="160" y="78" width="30" height="30" as="geometry" />
        </mxCell>
        <mxCell id="SFs9N2EElwwP3pAvT7Un-178" value="1" style="text;html=1;align=center;verticalAlign=middle;resizable=0;points=[];autosize=1;strokeColor=none;fillColor=none;" vertex="1" parent="1">
          <mxGeometry x="300" y="108" width="30" height="30" as="geometry" />
        </mxCell>
        <mxCell id="SFs9N2EElwwP3pAvT7Un-180" value="1" style="text;html=1;align=center;verticalAlign=middle;resizable=0;points=[];autosize=1;strokeColor=none;fillColor=none;" vertex="1" parent="1">
          <mxGeometry x="200" y="160" width="30" height="30" as="geometry" />
        </mxCell>
        <mxCell id="SFs9N2EElwwP3pAvT7Un-181" value="1" style="text;html=1;align=center;verticalAlign=middle;resizable=0;points=[];autosize=1;strokeColor=none;fillColor=none;" vertex="1" parent="1">
          <mxGeometry x="300" y="130" width="30" height="30" as="geometry" />
        </mxCell>
        <mxCell id="SFs9N2EElwwP3pAvT7Un-182" value="1" style="text;html=1;align=center;verticalAlign=middle;resizable=0;points=[];autosize=1;strokeColor=none;fillColor=none;" vertex="1" parent="1">
          <mxGeometry x="260" y="220" width="30" height="30" as="geometry" />
        </mxCell>
        <mxCell id="SFs9N2EElwwP3pAvT7Un-183" value="1" style="text;html=1;align=center;verticalAlign=middle;resizable=0;points=[];autosize=1;strokeColor=none;fillColor=none;" vertex="1" parent="1">
          <mxGeometry x="325" y="138" width="30" height="30" as="geometry" />
        </mxCell>
        <mxCell id="SFs9N2EElwwP3pAvT7Un-184" value="1" style="text;html=1;align=center;verticalAlign=middle;resizable=0;points=[];autosize=1;strokeColor=none;fillColor=none;" vertex="1" parent="1">
          <mxGeometry x="310" y="260" width="30" height="30" as="geometry" />
        </mxCell>
        <mxCell id="SFs9N2EElwwP3pAvT7Un-185" value="1" style="text;html=1;align=center;verticalAlign=middle;resizable=0;points=[];autosize=1;strokeColor=none;fillColor=none;" vertex="1" parent="1">
          <mxGeometry x="330" y="150" width="30" height="30" as="geometry" />
        </mxCell>
        <mxCell id="SFs9N2EElwwP3pAvT7Un-186" value="1" style="text;html=1;align=center;verticalAlign=middle;resizable=0;points=[];autosize=1;strokeColor=none;fillColor=none;" vertex="1" parent="1">
          <mxGeometry x="135" y="498" width="30" height="30" as="geometry" />
        </mxCell>
        <mxCell id="SFs9N2EElwwP3pAvT7Un-187" value="N" style="text;html=1;align=center;verticalAlign=middle;resizable=0;points=[];autosize=1;strokeColor=none;fillColor=none;" vertex="1" parent="1">
          <mxGeometry x="65" y="548" width="30" height="30" as="geometry" />
        </mxCell>
        <mxCell id="SFs9N2EElwwP3pAvT7Un-188" value="Admin can derive&amp;nbsp;&lt;br&gt;N types of analytics" style="text;html=1;align=center;verticalAlign=middle;resizable=0;points=[];autosize=1;strokeColor=none;fillColor=none;" vertex="1" parent="1">
          <mxGeometry x="10" y="510" width="130" height="40" as="geometry" />
        </mxCell>
        <mxCell id="SFs9N2EElwwP3pAvT7Un-190" value="Admin can manage&lt;br&gt;N users" style="text;html=1;align=center;verticalAlign=middle;resizable=0;points=[];autosize=1;strokeColor=none;fillColor=none;" vertex="1" parent="1">
          <mxGeometry x="180" y="520" width="130" height="40" as="geometry" />
        </mxCell>
        <mxCell id="SFs9N2EElwwP3pAvT7Un-191" value="Saved Housing&lt;br&gt;Posts" style="rounded=0;whiteSpace=wrap;html=1;fillColor=#f8cecc;strokeColor=#b85450;" vertex="1" parent="1">
          <mxGeometry x="552.5" y="453" width="85" height="45" as="geometry" />
        </mxCell>
        <mxCell id="SFs9N2EElwwP3pAvT7Un-192" value="1" style="endArrow=open;html=1;endSize=12;startArrow=diamondThin;startSize=14;startFill=0;edgeStyle=orthogonalEdgeStyle;align=left;verticalAlign=bottom;rounded=0;entryX=0.5;entryY=0;entryDx=0;entryDy=0;exitX=0.5;exitY=1;exitDx=0;exitDy=0;" edge="1" parent="1" source="SFs9N2EElwwP3pAvT7Un-191" target="SFs9N2EElwwP3pAvT7Un-43">
          <mxGeometry x="-0.8596" y="15" relative="1" as="geometry">
            <mxPoint x="600" y="510" as="sourcePoint" />
            <mxPoint x="578" y="670" as="targetPoint" />
            <mxPoint y="-1" as="offset" />
          </mxGeometry>
        </mxCell>
        <mxCell id="SFs9N2EElwwP3pAvT7Un-193" value="0..." style="edgeLabel;html=1;align=center;verticalAlign=middle;resizable=0;points=[];" vertex="1" connectable="0" parent="SFs9N2EElwwP3pAvT7Un-192">
          <mxGeometry x="0.8213" y="1" relative="1" as="geometry">
            <mxPoint as="offset" />
          </mxGeometry>
        </mxCell>
        <mxCell id="SFs9N2EElwwP3pAvT7Un-194" value="1" style="endArrow=open;html=1;endSize=12;startArrow=diamondThin;startSize=14;startFill=0;edgeStyle=orthogonalEdgeStyle;align=left;verticalAlign=bottom;rounded=0;exitX=0.25;exitY=1;exitDx=0;exitDy=0;" edge="1" parent="1" source="SFs9N2EElwwP3pAvT7Un-2">
          <mxGeometry x="-1" y="3" relative="1" as="geometry">
            <mxPoint x="690" y="340" as="sourcePoint" />
            <mxPoint x="624" y="453" as="targetPoint" />
            <Array as="points">
              <mxPoint x="690" y="340" />
              <mxPoint x="680" y="340" />
              <mxPoint x="680" y="430" />
              <mxPoint x="624" y="430" />
            </Array>
          </mxGeometry>
        </mxCell>
        <mxCell id="SFs9N2EElwwP3pAvT7Un-195" value="0..." style="edgeLabel;html=1;align=center;verticalAlign=middle;resizable=0;points=[];" vertex="1" connectable="0" parent="SFs9N2EElwwP3pAvT7Un-194">
          <mxGeometry x="0.8378" y="2" relative="1" as="geometry">
            <mxPoint as="offset" />
          </mxGeometry>
        </mxCell>
        <mxCell id="SFs9N2EElwwP3pAvT7Un-196" value="Saved Activity Posts" style="rounded=0;whiteSpace=wrap;html=1;fillColor=#f8cecc;strokeColor=#b85450;" vertex="1" parent="1">
          <mxGeometry x="970" y="460" width="100" height="40" as="geometry" />
        </mxCell>
        <mxCell id="SFs9N2EElwwP3pAvT7Un-197" value="1" style="endArrow=open;html=1;endSize=12;startArrow=diamondThin;startSize=14;startFill=0;edgeStyle=orthogonalEdgeStyle;align=left;verticalAlign=bottom;rounded=0;exitX=1.003;exitY=0.89;exitDx=0;exitDy=0;exitPerimeter=0;entryX=0.5;entryY=0;entryDx=0;entryDy=0;" edge="1" parent="1" source="SFs9N2EElwwP3pAvT7Un-2">
          <mxGeometry x="-0.8508" y="-7" relative="1" as="geometry">
            <mxPoint x="850" y="265" as="sourcePoint" />
            <mxPoint x="1018" y="463" as="targetPoint" />
            <Array as="points">
              <mxPoint x="1018" y="303" />
            </Array>
            <mxPoint as="offset" />
          </mxGeometry>
        </mxCell>
        <mxCell id="SFs9N2EElwwP3pAvT7Un-198" value="0..." style="edgeLabel;html=1;align=center;verticalAlign=middle;resizable=0;points=[];" vertex="1" connectable="0" parent="SFs9N2EElwwP3pAvT7Un-197">
          <mxGeometry x="0.8207" y="-3" relative="1" as="geometry">
            <mxPoint as="offset" />
          </mxGeometry>
        </mxCell>
        <mxCell id="SFs9N2EElwwP3pAvT7Un-199" value="1" style="endArrow=open;html=1;endSize=12;startArrow=diamondThin;startSize=14;startFill=0;edgeStyle=orthogonalEdgeStyle;align=left;verticalAlign=bottom;rounded=0;exitX=0.904;exitY=1.007;exitDx=0;exitDy=0;exitPerimeter=0;" edge="1" parent="1" source="SFs9N2EElwwP3pAvT7Un-196">
          <mxGeometry x="-1" y="3" relative="1" as="geometry">
            <mxPoint x="1070" y="530" as="sourcePoint" />
            <mxPoint x="1054.97" y="660" as="targetPoint" />
            <Array as="points">
              <mxPoint x="1060" y="605" />
              <mxPoint x="1055" y="605" />
            </Array>
          </mxGeometry>
        </mxCell>
        <mxCell id="SFs9N2EElwwP3pAvT7Un-200" value="0..." style="edgeLabel;html=1;align=center;verticalAlign=middle;resizable=0;points=[];" vertex="1" connectable="0" parent="SFs9N2EElwwP3pAvT7Un-199">
          <mxGeometry x="0.7523" y="-3" relative="1" as="geometry">
            <mxPoint as="offset" />
          </mxGeometry>
        </mxCell>
      </root>
    </mxGraphModel>
  </diagram>
</mxfile>
